<svg xmlns="http://www.w3.org/2000/svg" version="1.1" xmlns:xlink="http://www.w3.org/1999/xlink" width="512" height="512" x="0" y="0" viewBox="0 0 67 67" style="enable-background:new 0 0 512 512" xml:space="preserve" fill-rule="evenodd" class=""><g transform="matrix(-1,2.4492935982947064e-16,2.4492935982947064e-16,1,66.66600036621094,-1.4210854715202004e-14)"><path d="M64.583 62.5V20.772c0-5.719-4.636-10.355-10.355-10.355H12.439c-5.719 0-10.356 4.636-10.356 10.355v25.122c0 5.72 4.637 10.356 10.356 10.356h34.924l14.103 8.059a2.085 2.085 0 0 0 3.117-1.809zm-4.166-41.728V58.91L48.95 52.358a2.08 2.08 0 0 0-1.033-.275H12.439a6.189 6.189 0 0 1-6.189-6.188V20.772a6.19 6.19 0 0 1 6.189-6.189h41.789a6.19 6.19 0 0 1 6.189 6.189z" fill="#000000" opacity="1" data-original="#000000" class=""></path></g></svg>