<svg id="Capa_1" enable-background="new 0 0 512 512" height="512" viewBox="0 0 512 512" width="512" xmlns="http://www.w3.org/2000/svg"><g><path d="m106 316v30c0 49.629 40.371 90 90 90h30v76h60v-76h22.617c53.701 0 97.383-43.682 97.383-97.383 0-44.78-30.337-83.628-73.77-94.482l-46.23-11.56v-96.575h30c16.538 0 30 13.462 30 30v30h60v-30c0-49.629-40.371-90-90-90h-30v-76h-60v76h-22.617c-53.701 0-97.383 43.682-97.383 97.383 0 44.78 30.337 83.628 73.77 94.482l46.23 11.56v96.575h-30c-16.538 0-30-13.462-30-30v-30zm180-21.572 31.67 7.919c16.685 4.16 28.33 19.072 28.33 36.27 0 20.61-16.772 37.383-37.383 37.383h-22.617zm-91.67-84.776c-16.685-4.16-28.33-19.072-28.33-36.27 0-20.61 16.772-37.383 37.383-37.383h22.617v81.572z"/></g></svg>