<svg id="Capa_1" enable-background="new 0 0 512 512" height="512" viewBox="0 0 512 512" width="512" xmlns="http://www.w3.org/2000/svg"><g id="Server"><g><path d="m512 105c0 24.813-20.187 45-45 45h-422c-24.813 0-45-20.187-45-45v-60c0-24.813 20.187-45 45-45h422c24.813 0 45 20.187 45 45zm-467-75c-8.271 0-15 6.729-15 15v60c0 8.271 6.729 15 15 15h422c8.271 0 15-6.729 15-15v-60c0-8.271-6.729-15-15-15z"/></g><g><circle cx="75" cy="75" r="15"/></g><g><circle cx="135" cy="75" r="15"/></g><g><circle cx="195" cy="75" r="15"/></g><g><path d="m452 75c0 8.284-6.716 15-15 15h-120c-8.284 0-15-6.716-15-15s6.716-15 15-15h120c8.284 0 15 6.716 15 15z"/></g><g><path d="m512 286c0 24.813-20.187 45-45 45h-422c-24.813 0-45-20.187-45-45v-60c0-24.813 20.187-45 45-45h422c24.813 0 45 20.187 45 45zm-467-75c-8.271 0-15 6.729-15 15v60c0 8.271 6.729 15 15 15h422c8.271 0 15-6.729 15-15v-60c0-8.271-6.729-15-15-15z"/></g><g><circle cx="75" cy="256" r="15"/></g><g><circle cx="135" cy="256" r="15"/></g><g><circle cx="195" cy="256" r="15"/></g><g><path d="m437 271h-120c-8.284 0-15-6.716-15-15s6.716-15 15-15h120c8.284 0 15 6.716 15 15s-6.716 15-15 15z"/></g><g><path d="m467 512h-422c-24.813 0-45-20.187-45-45v-60c0-24.813 20.187-45 45-45h422c24.813 0 45 20.187 45 45v60c0 24.813-20.187 45-45 45zm-422-120c-8.271 0-15 6.729-15 15v60c0 8.271 6.729 15 15 15h422c8.271 0 15-6.729 15-15v-60c0-8.271-6.729-15-15-15z"/></g><g><circle cx="75" cy="437" r="15"/></g><g><circle cx="135" cy="437" r="15"/></g><g><circle cx="195" cy="437" r="15"/></g><g><path d="m437 452h-120c-8.284 0-15-6.716-15-15s6.716-15 15-15h120c8.284 0 15 6.716 15 15s-6.716 15-15 15z"/></g></g></svg>