<?xml version="1.0" encoding="iso-8859-1"?>
<!-- Generator: Adobe Illustrator 19.0.0, SVG Export Plug-In . SVG Version: 6.00 Build 0)  -->
<svg version="1.1" id="Capa_1" xmlns="http://www.w3.org/2000/svg" xmlns:xlink="http://www.w3.org/1999/xlink" x="0px" y="0px"
	 viewBox="0 0 426.667 426.667" style="enable-background:new 0 0 426.667 426.667;" xml:space="preserve">
<g>
	<g>
		<g>
			<path d="M213.333,0C96,0,0,96,0,213.333s96,213.333,213.333,213.333s213.333-96,213.333-213.333S330.667,0,213.333,0z
				 M213.333,384c-93.867,0-170.667-76.8-170.667-170.667s76.8-170.667,170.667-170.667S384,119.467,384,213.333
				S307.2,384,213.333,384z"/>
			<path d="M213.333,85.333c-70.4,0-128,57.6-128,128s57.6,128,128,128s128-57.6,128-128S283.733,85.333,213.333,85.333z
				 M213.333,298.667c-46.933,0-85.333-38.4-85.333-85.333S166.4,128,213.333,128s85.333,38.4,85.333,85.333
				S260.267,298.667,213.333,298.667z"/>
			<circle cx="213.333" cy="213.333" r="42.667"/>
		</g>
	</g>
</g>
<g>
</g>
<g>
</g>
<g>
</g>
<g>
</g>
<g>
</g>
<g>
</g>
<g>
</g>
<g>
</g>
<g>
</g>
<g>
</g>
<g>
</g>
<g>
</g>
<g>
</g>
<g>
</g>
<g>
</g>
</svg>
